# xmcd
#
# Track frame offsets:
#	151
#	7735
#	16329
#	29887
#	46997
#	56165
#	67740
#	79841
#	91618
#	103498
#	114007
#	133031
#	142668
#
# Disc length: 2121 seconds
#
# Revision: 0
# Processed by: cddbd v1.4PL0 Copyright (c) Steve Scherf et al.
# Submitted via: dBpowerAMP V4.0
#
DISCID=9c08470d
DTITLE=Christmas on the Mountain - Bluegrass Instrumentals
DYEAR=1900
DGENRE=Christmas
TTITLE0=Christmas Time's a Coming
TTITLE1=Carol of the Bells
TTITLE2=Silent Night
TTITLE3=O Christmas Tree
TTITLE4=Jolly Old Saint Nicholas
TTITLE5=O Little Town of Bethlehem
TTITLE6=Jingle Bells
TTITLE7=The First Noel
TTITLE8=Good King Wenceslas
TTITLE9=Away in a Manger
TTITLE10=Joy to the World
TTITLE11=In the Bleak Midwinter
TTITLE12=Extra Song
EXTD=
EXTT0=
EXTT1=
EXTT2=
EXTT3=
EXTT4=
EXTT5=
EXTT6=
EXTT7=
EXTT8=
EXTT9=
EXTT10=
EXTT11=
EXTT12=
PLAYORDER=
